# xmcd CD database file
#
# Track frame offsets:
#	150
#	25652
#	42084
#	62614
#	73956
#	87574
#	101640
#	116088
#	127805
#	139219
#	153274
#	166310
#	176348
#	189096
#	203345
#	217861
#	232439
#	246332
#	258376
#	272708
#
# Disc length: 3757 seconds
#
# Revision: 0
# Processed by: cddbd v1.5.1PL0 Copyright (c) Steve Scherf et al.
# Submitted via: CDex 1.50beta9
#
DISCID=180eab14
DTITLE=Judy Garland - Over the Rainbow, CD  2
DYEAR=1900
DGENRE=Jazz
TTITLE0=Minnie from Trinidad
TTITLE1=Chip up, Cheerio, carry on!
TTITLE2=Hoe Down
TTITLE3=F.D.R. Jones
TTITLE4=how about you?
TTITLE5=Blues in the Night
TTITLE6=Poor little rich Girl
TTITLE7=On the Sunny Side of the Street
TTITLE8=For me and my Gal
TTITLE9=The Boy next Door
TTITLE10=The Trolley Song
TTITLE11=Meet me in St. Louis, Louis
TTITLE12=Mine
TTITLE13=Yah-Ta-Ta, Yah-Ta-Ta
TTITLE14=On the Atchison, Topeka, and the Sante Fe
TTITLE15=There is no Breeze (to coole the Flame of Love)
TTITLE16=Aren't you Kinda glad we did
TTITLE17=A Couple of Swells
TTITLE18=Medla a. I love Piano,b. Snooky Ookums, c. When the  Midnight Choo choo
TTITLE19=Old Buttermilk Sky
EXTD=
EXTT0=
EXTT1=
EXTT2=
EXTT3=
EXTT4=
EXTT5=
EXTT6=
EXTT7=
EXTT8=
EXTT9=
EXTT10=
EXTT11=
EXTT12=
EXTT13=
EXTT14=
EXTT15=
EXTT16=
EXTT17=
EXTT18=
EXTT19=
PLAYORDER=
